<svg xmlns="http://www.w3.org/2000/svg" width="13" height="14" viewBox="0 0 13 14" fill="none">
<path fill-rule="evenodd" clip-rule="evenodd" d="M3.05998e-07 9.00019C3.42203e-07 9.82862 0.671574 10.5 1.5 10.5H3.00016V9.50019H1.5C1.22386 9.50019 1 9.27634 1 9.00019L1 1.99964C1 1.72349 1.22386 1.49963 1.5 1.49963L8.50056 1.49963C8.7767 1.49963 9.00056 1.72349 9.00056 1.99963V3.49977H4.50033C3.67191 3.49977 3.00033 4.17134 3.00033 4.99977V12.0003C3.00033 12.8288 3.67191 13.5003 4.50034 13.5003H11.5009C12.3293 13.5003 13.0009 12.8288 13.0009 12.0003V4.99977C13.0009 4.17134 12.3293 3.49977 11.5009 3.49977H10.0006V1.99963C10.0006 1.17121 9.32899 0.499634 8.50056 0.499634L1.5 0.499634C0.671572 0.499634 -3.62052e-08 1.17121 0 1.99964L3.05998e-07 9.00019ZM4.00033 4.99977C4.00033 4.72363 4.22419 4.49977 4.50033 4.49977H11.5009C11.777 4.49977 12.0009 4.72363 12.0009 4.99977V12.0003C12.0009 12.2765 11.777 12.5003 11.5009 12.5003H4.50034C4.22419 12.5003 4.00033 12.2765 4.00033 12.0003V4.99977Z" fill="#7E8594"/>
</svg>