<svg xmlns="http://www.w3.org/2000/svg" width="16" height="17" viewBox="0 0 16 17" fill="none">
<path d="M15.7622 10.4308C14.6947 14.7139 10.3566 17.3293 6.06567 16.2612C1.78256 15.1904 -0.828651 10.8523 0.238856 6.5692C1.30636 2.2861 5.64181 -0.329307 9.9223 0.738849C14.2159 1.79392 16.8271 6.14508 15.7622 10.4308Z" fill="#ECEFF0"/>
<path d="M8.09294 10.4406C8.06186 10.4512 8.04414 10.4241 8.02301 10.4117C6.98696 9.80024 5.95206 9.18835 4.91829 8.57605C4.90828 8.57099 4.89789 8.56673 4.88721 8.5633V8.54963L4.90555 8.53906C4.93158 8.53222 4.95722 8.52392 4.98232 8.5142L7.42376 7.40335C7.64133 7.3042 7.8589 7.2066 8.07647 7.10839H8.09201C8.09201 7.13947 8.09201 7.16713 8.09201 7.19666C8.09284 8.27808 8.09315 9.3594 8.09294 10.4406Z" fill="#343535"/>
<path d="M8.09448 7.10914H8.07894C8.07894 7.07806 8.08205 7.04698 8.08205 7.01434C8.08205 5.79968 8.08205 4.58492 8.08205 3.37005C8.07848 3.33885 8.08059 3.30726 8.08827 3.27681H8.0948C8.22254 3.46547 8.33381 3.66439 8.4513 3.85927C9.38208 5.40319 10.3124 6.9469 11.2421 8.4904C11.2511 8.50563 11.2583 8.52148 11.2663 8.53826C11.24 8.53264 11.2141 8.52505 11.1889 8.51557C11.0183 8.43849 10.8471 8.36016 10.678 8.28153C10.4132 8.16031 10.1482 8.0393 9.88322 7.9185L8.6064 7.34008C8.43638 7.26175 8.26543 7.1856 8.09448 7.10914Z" fill="#2F3030"/>
<path d="M8.08929 3.2752C8.08161 3.30565 8.0795 3.33724 8.08308 3.36845C8.08308 4.58311 8.08308 5.79787 8.08308 7.01273C8.08308 7.04382 8.08121 7.0749 8.07997 7.10753C7.8624 7.20575 7.64483 7.30335 7.42726 7.4025L4.98582 8.51334C4.96072 8.52307 4.93508 8.53137 4.90904 8.53821C4.9796 8.3915 5.07129 8.25848 5.1549 8.11799C6.1236 6.50777 7.09303 4.89786 8.06318 3.28826C8.06959 3.27934 8.07655 3.27083 8.08401 3.26277L8.08929 3.2752Z" fill="#828384"/>
<path d="M8.09448 7.10914C8.26543 7.1856 8.43643 7.26178 8.60707 7.33886L9.88389 7.91728C10.1491 8.03788 10.414 8.15889 10.6786 8.28031C10.849 8.35833 11.0205 8.43727 11.1896 8.51435C11.2148 8.52383 11.2407 8.53142 11.267 8.53705C11.2981 8.5759 11.2521 8.57745 11.2381 8.58584C10.973 8.74436 10.7066 8.9007 10.4409 9.05797C9.67813 9.50927 8.9156 9.96047 8.15328 10.4116C8.13401 10.4228 8.11314 10.431 8.09294 10.4406C8.09294 9.35961 8.09298 8.27865 8.09298 7.19744C8.09329 7.16791 8.09417 7.13867 8.09448 7.10914Z" fill="#131313"/>
<path d="M8.08202 11.0547L10.079 9.87763C10.4603 9.65261 10.8413 9.42737 11.2222 9.20193L11.2567 9.18297C11.2601 9.21405 11.2386 9.23052 11.2256 9.24855C10.3553 10.4754 9.48503 11.7019 8.61476 12.928C8.45002 13.1604 8.2856 13.3942 8.11932 13.6248C8.11062 13.6369 8.09725 13.6938 8.07052 13.6335C8.09166 13.6155 8.08233 13.5912 8.08233 13.5713C8.08254 12.7321 8.08243 11.8933 8.08202 11.0547Z" fill="#2F3030"/>
<path d="M8.08185 11.0548C8.08185 11.8934 8.08185 12.7318 8.08185 13.5699C8.08185 13.5914 8.09117 13.6156 8.07004 13.6321C8.02559 13.6054 8.00632 13.5575 7.97679 13.518C6.96768 12.0966 5.95909 10.6749 4.95102 9.25306C4.93828 9.23503 4.92647 9.21576 4.91341 9.19587C4.93952 9.18064 4.95351 9.20146 4.96874 9.21047C5.98924 9.81304 7.00954 10.4161 8.02963 11.0197C8.04859 11.0315 8.06475 11.0437 8.08185 11.0548Z" fill="#828384"/>
<path d="M8.08952 3.27518L8.08206 3.26368C8.09574 3.25498 8.09387 3.26773 8.09605 3.27425L8.08952 3.27518Z" fill="#393939"/>
</svg>