<svg
className='ml-auto'
xmlns="http://www.w3.org/2000/svg"
width="13"
height="13"
viewBox="0 0 13 13"
fill="#71717A"
>
<path
  fill-rule="evenodd"
  clip-rule="evenodd"
  d="M1 0C0.4 0 0 0.4 0 1V12C0 12.5523 0.4 13 1 13H8.5C8.77614 13 9 12.7761 9 12.5C9 12.2239 8.77614 12 8.5 12H1V1L8.5 1C8.77614 1 9 0.776142 9 0.5C9 0.223858 8.77614 0 8.5 0H1ZM10.6036 3.89645C10.4083 3.70118 10.0917 3.70118 9.89645 3.89645C9.70118 4.09171 9.70118 4.40829 9.89645 4.60355L11.2929 6H4.5C4.22386 6 4 6.22386 4 6.5C4 6.77614 4.22386 7 4.5 7H11.2929L9.89645 8.39645C9.70118 8.59171 9.70118 8.90829 9.89645 9.10355C10.0917 9.29882 10.4083 9.29882 10.6036 9.10355L12.8536 6.85355C13.0488 6.65829 13.0488 6.34171 12.8536 6.14645L10.6036 3.89645Z"
/>
</svg>
