<svg width="12" height="13" viewBox="0 0 12 13" fill="none" xmlns="http://www.w3.org/2000/svg">
<path d="M4.33333 2.16667H3.13333C2.38667 2.16667 2.01333 2.16667 1.728 2.312C1.4771 2.43979 1.27313 2.64377 1.14533 2.89467C1 3.18 1 3.55333 1 4.3V9.36667C1 10.1133 1 10.4867 1.14533 10.772C1.27316 11.0229 1.47713 11.2268 1.728 11.3547C2.01267 11.5 2.386 11.5 3.13133 11.5H8.202C8.94733 11.5 9.32 11.5 9.60467 11.3547C9.856 11.2267 10.06 11.0227 10.188 10.772C10.3333 10.4867 10.3333 10.114 10.3333 9.36867V8.16667M11 4.83333V1.5M11 1.5H7.66667M11 1.5L6.33333 6.16667" stroke="black" stroke-width="1.33333" stroke-linecap="round" stroke-linejoin="round"/>
</svg>
