<svg xmlns="http://www.w3.org/2000/svg" width="16" height="16" viewBox="0 0 16 17" fill="none">
<path d="M8 16.5C12.4183 16.5 16 12.9183 16 8.5C16 4.08172 12.4183 0.5 8 0.5C3.58172 0.5 0 4.08172 0 8.5C0 12.9183 3.58172 16.5 8 16.5Z" fill="#FF0420"/>
<path fill-rule="evenodd" clip-rule="evenodd" d="M4.49534 10.2854C4.83883 10.5214 5.24944 10.6393 5.66568 10.6216C6.24201 10.6216 6.7018 10.4875 7.0458 10.2195C7.39006 9.94738 7.63212 9.53728 7.77198 8.98918C7.856 8.65309 7.92797 8.30699 7.98791 7.95088C8.00584 7.84577 8.01583 7.73946 8.01788 7.63285C8.02505 7.37671 7.9518 7.12479 7.8081 6.91259C7.66568 6.70663 7.46512 6.54783 7.23202 6.45645C6.96947 6.34884 6.68771 6.29575 6.4039 6.30039C5.27147 6.30039 4.56937 6.85055 4.29734 7.95088C4.20128 8.35456 4.12726 8.70065 4.07526 8.98918C4.05707 9.09629 4.04708 9.20462 4.04529 9.31324C4.03581 9.49966 4.07167 9.68561 4.15005 9.855C4.22844 10.0244 4.34703 10.1721 4.49534 10.2854ZM6.32014 9.55927C6.16056 9.69262 5.95769 9.76305 5.7497 9.75731C5.36573 9.75731 5.17362 9.57327 5.17362 9.20517C5.17336 9.15786 5.17593 9.11059 5.18079 9.0636C5.18463 9.02657 5.19027 8.98971 5.19744 8.95311C5.26942 8.56501 5.3414 8.23691 5.41363 7.96885C5.45897 7.73644 5.57654 7.5243 5.7497 7.36269C5.91184 7.22988 6.11624 7.15963 6.32577 7.16465C6.70589 7.16457 6.89596 7.3466 6.89596 7.71075C6.89596 7.79735 6.88802 7.88376 6.87188 7.96885C6.82398 8.24906 6.75405 8.57716 6.66209 8.95311C6.61624 9.18674 6.49637 9.39935 6.32014 9.55927Z" fill="white"/>
<path fill-rule="evenodd" clip-rule="evenodd" d="M8.23868 10.5523C8.25636 10.5596 8.27531 10.5628 8.29452 10.5616L9.11086 10.5618C9.13084 10.5615 9.15057 10.5579 9.16901 10.5513C9.18924 10.5442 9.2082 10.5336 9.22485 10.5198C9.25969 10.4934 9.28325 10.4548 9.29042 10.4117L9.56655 9.09738H10.3767C10.9008 9.09738 11.313 8.98734 11.6129 8.76728C11.9364 8.51576 12.1529 8.15132 12.2192 7.74695C12.2425 7.64454 12.2546 7.53987 12.2553 7.43482C12.2625 7.27777 12.2284 7.12156 12.157 6.98157C12.0855 6.84159 11.9787 6.72267 11.847 6.63653C11.5271 6.4383 11.1547 6.34202 10.7786 6.36046H9.18233C9.15159 6.36092 9.12188 6.369 9.09549 6.38375C9.08602 6.3891 9.0768 6.39535 9.06809 6.40242C9.03351 6.42881 9.00994 6.46744 9.00251 6.51049L8.17439 10.4116C8.16594 10.4486 8.17234 10.4874 8.19232 10.5197C8.20282 10.5313 8.21537 10.5408 8.2292 10.5479L8.23868 10.5523ZM10.8573 8.13096C10.7302 8.2239 10.5763 8.27239 10.419 8.26892H9.72895L9.95692 7.19469H10.6772C10.8009 7.18252 10.9252 7.21672 11.0253 7.29069C11.0604 7.32454 11.0881 7.36575 11.1057 7.41139C11.1232 7.45704 11.1306 7.506 11.1273 7.55482C11.1265 7.61525 11.1203 7.67549 11.1093 7.73489C11.0776 7.89377 10.9877 8.03507 10.8573 8.13096Z" fill="white"/>
</svg>